<svg xmlns="http://www.w3.org/2000/svg" viewBox="0 0 512 512" role="img" aria-label="VašaSauna oheň">
  <defs>
    <radialGradient id="bg" cx="50%" cy="32%" r="72%">
      <stop offset="0" stop-color="#FFF8DA"/>
      <stop offset="0.36" stop-color="#EDB65D"/>
      <stop offset="0.68" stop-color="#C47A2C"/>
      <stop offset="1" stop-color="#57351F"/>
    </radialGradient>
    <linearGradient id="flameOuter" x1="256" y1="92" x2="256" y2="430" gradientUnits="userSpaceOnUse">
      <stop offset="0" stop-color="#FFF3B0"/>
      <stop offset="0.28" stop-color="#EDB65D"/>
      <stop offset="0.66" stop-color="#C47A2C"/>
      <stop offset="1" stop-color="#8B3F1C"/>
    </linearGradient>
    <linearGradient id="flameInner" x1="256" y1="205" x2="256" y2="421" gradientUnits="userSpaceOnUse">
      <stop offset="0" stop-color="#FFFBE6"/>
      <stop offset="0.45" stop-color="#F6C879"/>
      <stop offset="1" stop-color="#C47A2C"/>
    </linearGradient>
    <filter id="softShadow" x="-20%" y="-20%" width="140%" height="140%">
      <feDropShadow dx="0" dy="10" stdDeviation="10" flood-color="#57351F" flood-opacity="0.25"/>
    </filter>
  </defs>
  <circle cx="256" cy="256" r="242" fill="url(#bg)"/>
  <circle cx="256" cy="256" r="226" fill="none" stroke="rgba(255,255,255,.35)" stroke-width="8"/>
  <path filter="url(#softShadow)" fill="url(#flameOuter)" d="M260 67c38 54 44 104 21 151-16 34-48 64-72 99-24 36-31 78-6 112-65-23-104-76-96-141 5-41 29-77 62-113 35-38 72-73 91-108Zm87 145c65 55 92 125 65 188-22 52-75 84-141 84-78 0-145-42-168-103 33 31 71 40 108 27 36-13 61-43 69-86 7-38-3-76 18-110 13 28 27 49 49 54 22 5 39-12 40-36 0-6-1-12-2-18Z"/>
  <path fill="url(#flameInner)" d="M262 286c44 42 67 82 58 121-8 35-36 58-72 64 13-31 6-55-16-81-22-26-29-54-14-83 9-18 24-34 44-21Z" opacity="0.96"/>
</svg>
