<svg xmlns="http://www.w3.org/2000/svg" viewBox="0 0 512 512" role="img" aria-label="VašaSauna oheň">
  <defs><radialGradient id="bg" cx="50%" cy="32%" r="75%"><stop offset="0" stop-color="#FFF7EA"/><stop offset="0.28" stop-color="#EDB65D"/><stop offset="0.62" stop-color="#C47A2C"/><stop offset="1" stop-color="#57351F"/></radialGradient><linearGradient id="flame" x1="256" y1="70" x2="256" y2="430" gradientUnits="userSpaceOnUse"><stop offset="0" stop-color="#FFFFFF"/><stop offset="0.42" stop-color="#FFF7EA"/><stop offset="1" stop-color="#F3E2C8"/></linearGradient><linearGradient id="inner" x1="256" y1="230" x2="256" y2="430" gradientUnits="userSpaceOnUse"><stop offset="0" stop-color="#FFF3B0"/><stop offset="0.55" stop-color="#EDB65D"/><stop offset="1" stop-color="#C47A2C"/></linearGradient><filter id="shadow" x="-20%" y="-20%" width="140%" height="140%"><feDropShadow dx="0" dy="8" stdDeviation="10" flood-color="#26180F" flood-opacity="0.24"/></filter></defs>
  <circle cx="256" cy="256" r="246" fill="url(#bg)"/><circle cx="256" cy="256" r="225" fill="none" stroke="rgba(255,255,255,.38)" stroke-width="10"/>
  <path filter="url(#shadow)" fill="url(#flame)" d="M258 58c44 64 49 118 24 169-16 33-47 62-72 96-25 35-33 74-9 109-66-24-102-74-95-137 5-44 31-80 65-117 35-39 70-74 87-120Zm88 148c62 56 87 127 60 189-23 52-75 81-139 81-73 0-134-37-163-96 37 29 77 34 113 16 35-18 57-51 60-96 2-32-7-65 19-100 11 29 26 55 51 60 24 5 42-12 42-38 0-6-1-11-2-16Z"/>
  <path fill="url(#inner)" d="M263 283c42 42 62 80 54 117-8 34-36 55-71 61 12-30 5-53-16-78-22-26-28-54-13-82 10-19 26-34 46-18Z"/>
</svg>